PathFileType	4	(X/Y/Z)	/Users/niels/Desktop/University/Third Semester/Perception and Action/Exam/Gymnastics Motion Tracking/Code for Gym Tracking/Analyzed Data/Webcam_Backflip/id2_3_baseline_Sports2D/id2_3_baseline_Sports2D_px_person00.trc
DataRate	CameraRate	NumFrames	NumMarkers	Units	OrigDataRate	OrigDataStartFrame	OrigNumFrames
29.87551867219917	29.87551867219917	8	22	m	29.87551867219917	180	241
Frame#	Time	Hip			RHip			RKnee			RAnkle			RBigToe			RSmallToe			RHeel			LHip			LKnee			LAnkle			LBigToe			LSmallToe			LHeel			Neck			Head			Nose			RShoulder			RElbow			RWrist			LShoulder			LElbow			LWrist		
		X1	Y1	Z1	X2	Y2	Z2	X3	Y3	Z3	X4	Y4	Z4	X5	Y5	Z5	X6	Y6	Z6	X7	Y7	Z7	X8	Y8	Z8	X9	Y9	Z9	X10	Y10	Z10	X11	Y11	Z11	X12	Y12	Z12	X13	Y13	Z13	X14	Y14	Z14	X15	Y15	Z15	X16	Y16	Z16	X17	Y17	Z17	X18	Y18	Z18	X19	Y19	Z19	X20	Y20	Z20	X21	Y21	Z21	X22	Y22	Z22
180	6.025	0.7125739703568807	-0.5565892394107318	0.0	0.7092901494500788	-0.5566971037355983	0.0	0.7280714468135383	-0.666038074029522	0.0	0.6933616624874677	-0.7803008178153064	0.0	0.737257759024969	-0.7998996843551213	0.0	0.7227122255664254	-0.8045250846648246	0.0	0.6821143019681729	-0.798361356331872	0.0	0.7124350575173214	-0.5555406456328679	0.0	0.724660750478937	-0.6653063830253448	0.0	0.700572983252909	-0.7770047005417289	0.0	0.746549672014975	-0.7948057192341681	0.0	0.7407900060681362	-0.7912284251070925	0.0	0.6897957268764539	-0.7947805341067199	0.0	0.7106116802494545	-0.40044731637074205	0.0	0.7317047848024717	-0.32679143641346636	0.0	0.7475234034174599	-0.36609573169602977	0.0	0.6957001358970067	-0.42081417191986936	0.0	0.6805916524553756	-0.49663309173543435	0.0	0.721100742551263	-0.5631228613235011	0.0	0.7120537870012293	-0.4204971105969075	0.0	0.7181498498728514	-0.49460358702489005	0.0	0.752256895866295	-0.5502945956231529	0.0
181	6.058472222222222	0.7124795503585447	-0.5574661437689614	0.0	0.7096161431266607	-0.5574095672673518	0.0	0.7280906160081534	-0.6663533456832522	0.0	0.6946179488185604	-0.7811107707823545	0.0	0.7387896761296651	-0.8001104562662369	0.0	0.7249374785670619	-0.8049760988623886	0.0	0.6833728791915586	-0.799083388678563	0.0	0.7118236293736995	-0.5561089261082675	0.0	0.7245730360938764	-0.6655465345755079	0.0	0.7012486103111516	-0.7778591525221776	0.0	0.7469421353723191	-0.7952911567981986	0.0	0.7409285363640404	-0.7918549539974152	0.0	0.6903460266355491	-0.7956520067869428	0.0	0.7104946511322169	-0.4010485385354291	0.0	0.7313226485542365	-0.32697955363406594	0.0	0.7473773278722032	-0.3667374763422484	0.0	0.6951749863650907	-0.4217006939716932	0.0	0.6816076973668985	-0.4981251289529962	0.0	0.7227752012942648	-0.5639556122078998	0.0	0.7122436573630035	-0.42133943494822923	0.0	0.7196780220303888	-0.49529380857237104	0.0	0.7556940207503487	-0.5494516963169468	0.0
182	6.091944444444445	0.7126828876022347	-0.5595167473252807	0.0	0.7098172205862833	-0.5592264623554323	0.0	0.7265329520743659	-0.6673758958243404	0.0	0.695162580627042	-0.7827515375368596	0.0	0.7384700750011147	-0.8013277969875139	0.0	0.7256609213824152	-0.8062480375175952	0.0	0.6842056109200523	-0.8006645151091172	0.0	0.7122291363154141	-0.5578635389773675	0.0	0.7243937676342616	-0.6664653820202955	0.0	0.7024484212543533	-0.7789607956604501	0.0	0.7472969974876109	-0.7960522967934602	0.0	0.74130971206601	-0.7927471905146406	0.0	0.6920991046791275	-0.7967695430599417	0.0	0.7104037339599901	-0.40224511896535203	0.0	0.7306443403350444	-0.3277813659139388	0.0	0.7470634959662299	-0.36794250995219363	0.0	0.6946897821414848	-0.4232577591782544	0.0	0.6825474551314161	-0.500291032158569	0.0	0.7234098091277812	-0.5658385037176672	0.0	0.7126102208129229	-0.4228427421527818	0.0	0.7210110325373181	-0.4964873447292968	0.0	0.7584054635651415	-0.5496853883755966	0.0
183	6.125416666666667	0.7131131908843085	-0.5624240125339564	0.0	0.7098836029505793	-0.5618936127018446	0.0	0.723947410059266	-0.6690177815890638	0.0	0.6950412582614212	-0.7850302447172509	0.0	0.7368058727101614	-0.8034426551349976	0.0	0.7251078817010631	-0.8082981104695259	0.0	0.6845776898176881	-0.80296989363239	0.0	0.7134527728355202	-0.5605402555350701	0.0	0.72415263511311	-0.6680019737513233	0.0	0.7038678977222885	-0.7802855606092628	0.0	0.7476830975045268	-0.797213308924917	0.0	0.7419765170798681	-0.793970068344414	0.0	0.6945659355823431	-0.7981385244026574	0.0	0.7103554105374627	-0.40393220056188467	0.0	0.7297942698566252	-0.32915190347152845	0.0	0.7466798003527743	-0.36959930765214055	0.0	0.6943402107313743	-0.42537571063900625	0.0	0.6832848843205414	-0.502860077481415	0.0	0.723085435622715	-0.5685798593023145	0.0	0.7130405003192052	-0.4248399545968426	0.0	0.7221134575835609	-0.498144978996574	0.0	0.7603182228553372	-0.5510693591945377	0.0
184	6.158888888888889	0.7136508350279884	-0.5656004125371473	0.0	0.7098160606591882	-0.5649210687214856	0.0	0.7209940087928132	-0.671156084913962	0.0	0.6944562938415003	-0.7877214652246244	0.0	0.7346731864528985	-0.8061388313036959	0.0	0.723829139615523	-0.8108927456555266	0.0	0.6845057247965933	-0.80571029037138	0.0	0.7151809729127636	-0.5635861430464665	0.0	0.7239330193159266	-0.6700378714105245	0.0	0.7052344816198298	-0.781815856289677	0.0	0.7482048559932083	-0.7988114622130089	0.0	0.7429554185488565	-0.7955525718369819	0.0	0.69714602185357	-0.7997422722995988	0.0	0.7103734600804276	-0.4059394937552728	0.0	0.7289603429414689	-0.33102923291781167	0.0	0.7463541361922712	-0.37154733152140446	0.0	0.6942031724272392	-0.42784710984514235	0.0	0.6837474901088665	-0.5055531650041599	0.0	0.7219621835855304	-0.5718858371178231	0.0	0.7134433207522897	-0.42712843041613824	0.0	0.7228865302739389	-0.5001798483623985	0.0	0.761292210769513	-0.5534547097073651	0.0
185	6.192361111111111	0.7142103344102586	-0.568429922103129	0.0	0.7096354596761884	-0.5677906624541066	0.0	0.7181970003536439	-0.6735735700666282	0.0	0.6936346653977987	-0.7905426664493332	0.0	0.7328034290123645	-0.8090603455796506	0.0	0.7223379119290502	-0.8136875548891741	0.0	0.6840781676989679	-0.8085160467904663	0.0	0.7171080757540871	-0.5664436765943349	0.0	0.723844495146463	-0.6723550944247679	0.0	0.7063191835279106	-0.7834935869235244	0.0	0.748890760024971	-0.8007078420374729	0.0	0.744188462872486	-0.7973915726826726	0.0	0.6992973475791928	-0.8014769536911307	0.0	0.710466843658769	-0.408089129105234	0.0	0.7283615160130179	-0.3332700514216366	0.0	0.7461861502043451	-0.37359656561999754	0.0	0.6942433321033086	-0.4303973177897952	0.0	0.6838795075504874	-0.5081035277288998	0.0	0.7202354262212418	-0.5753669650499467	0.0	0.7137843856211777	-0.4295212542016948	0.0	0.7232380712988208	-0.5024543891892556	0.0	0.7612092412962052	-0.5565551788628756	0.0
186	6.225833333333333	0.7148064530195177	-0.5704984914914608	0.0	0.7094208479217046	-0.5701018518717361	0.0	0.7158353499710993	-0.6760007201286116	0.0	0.6927299324828711	-0.7931885230633099	0.0	0.7314819946899668	-0.8118789537052389	0.0	0.7208935285661688	-0.8163099901830804	0.0	0.6834141169592265	-0.8110510246238328	0.0	0.7191022466876807	-0.568741953309856	0.0	0.7239509143997683	-0.6747112790414278	0.0	0.7070131495486357	-0.7851904078643215	0.0	0.7496302065143119	-0.8026175433309733	0.0	0.7454983976162829	-0.7992565497306005	0.0	0.7007511379344648	-0.8031463391857551	0.0	0.7106213206504095	-0.41019303403713747	0.0	0.7281732961616998	-0.33563232191518655	0.0	0.7462252980848461	-0.3755613835341231	0.0	0.6943449147553246	-0.4327171999634858	0.0	0.6836360248071806	-0.5102807671389786	0.0	0.7180586570972494	-0.5786133628876461	0.0	0.7141054399886482	-0.4318362883579555	0.0	0.7231301018045929	-0.5047796704565842	0.0	0.7600557923383255	-0.5600438736699496	0.0
187	6.259305555555556	0.7154914932850593	-0.5717167825801787	0.0	0.709283835620945	-0.5716521775354074	0.0	0.7139633979525014	-0.6782130290841272	0.0	0.6918409962679396	-0.7954008552018448	0.0	0.7306372611781087	-0.8142782474930531	0.0	0.7195505469040865	-0.8184413882060392	0.0	0.6826413905264693	-0.8130677513784459	0.0	0.7211522258548124	-0.5703413719041464	0.0	0.7241907416104956	-0.6769169681790105	0.0	0.7073459618905285	-0.786704793215626	0.0	0.7502123774658352	-0.8042140009752231	0.0	0.7466174896442991	-0.8008457071418105	0.0	0.7015184212544335	-0.8045198029876648	0.0	0.7108026098481554	-0.412031601158828	0.0	0.7284476685667678	-0.33783667275835666	0.0	0.7464579415105104	-0.37728022169407766	0.0	0.6944052208597861	-0.4345350448786814	0.0	0.6830115533254886	-0.511914708160683	0.0	0.7155223564812362	-0.5813094728504367	0.0	0.7144636145196279	-0.4338823103780558	0.0	0.7225299497951143	-0.5069123846597835	0.0	0.7578932450065214	-0.5635947176719909	0.0
